# xmcd CD database file
#
# Track frame offsets:
#	150
#	12468
#	26898
#	42735
#	57706
#	78831
#	89974
#	102855
#	113271
#	126789
#	138926
#	152713
#	168640
#	190636
#	210234
#	229459
#
# Disc length: 3285 seconds
#
# Revision: 0
# Processed by: cddbd v1.5.2PL0 Copyright (c) Steve Scherf et al.
# Submitted via: CDex 1.91
#
DISCID=dc0cd310
DTITLE=Hank Williams Jr. - A Country Boy Can Survive [CD3]
DYEAR=2016
DGENRE=Country
TTITLE0=Born To Boogie
TTITLE1=Heaven Can't Be Found 
TTITLE2=Young Country
TTITLE3=If The South Woulda Won 
TTITLE4=My Name Is Bocephus
TTITLE5=Early In The Morning And Late At Night
TTITLE6=There's A Tear In My Beer 
TTITLE7=All My Rowdy Friends Are Coming Over For Monday Night Football
TTITLE8=Finders Are Keepers
TTITLE9=Ain't Nobody's Business
TTITLE10=Good Friends, Good Whiskey, Good Lovin'
TTITLE11=Hog Wild
TTITLE12=America Will Survive
TTITLE13=A Country Boy Can Survive (Remix) 
TTITLE14=Red, White and Pink Slip Blues
TTITLE15=All For The Love Of Sunshine
EXTD=YEAR: 2016
EXTT0=
EXTT1=
EXTT2=
EXTT3=
EXTT4=
EXTT5=
EXTT6=
EXTT7=
EXTT8=
EXTT9=
EXTT10=
EXTT11=
EXTT12=
EXTT13=
EXTT14=
EXTT15=
PLAYORDER=
